<svg fill="none" height="380" viewBox="0 0 380 380" width="380" xmlns="http://www.w3.org/2000/svg" xmlns:xlink="http://www.w3.org/1999/xlink"><clipPath id="a"><path d="m0 0h379.1v379.1h-379.1z"/></clipPath><g clip-path="url(#a)"><path d="m379.1 0h-379.1v379.1h379.1z" fill="#e72264"/><path d="m189.505 57c-54.405 0-98.505 44.057-98.505 98.407 0 1.065.0184 2.121.0551 3.177v94.568.018 9.614s0 0 .0092-.009v23.773c0 .184-.0092.358-.0092.542 0 .183.0092.367.0184.551v.44h.0092c.5239 18.264 15.4963 32.91 33.9073 32.91 18.41 0 33.539-14.646 34.063-32.91v-34.911h28.145c.762.019 1.535.028 2.297.028 54.405 0 98.505-43.442 98.505-97.791 0-54.35-44.091-98.407-98.495-98.407zm0 128.249c-6.021 0-21.279 0-27.611 0h-2.813v-29.833c0-16.721 13.686-30.283 30.424-30.283 16.737 0 30.313 13.562 30.313 30.283s-13.576 29.842-30.313 29.842z" fill="#fff"/><g fill-opacity=".5"><path d="m124.135 253.189h34.872v34.902h-.156c-.524 18.263-15.497 32.909-33.907 32.909s-33.3925-14.646-33.9164-32.909h-.0092v-.441c0-.184-.0184-.367-.0184-.551s.0092-.358.0092-.542v-2.46c1.0478-16.336 16.4798-30.908 33.1168-30.908z" fill="#1d1d1b" opacity=".15"/><g fill="#000"><g opacity=".05"><path d="m91.0552 211.208v41.963c0-36.968 31.0948-67.398 68.0078-67.903v-13.388c-27.437 2.883-51.73 17.639-68.0078 39.328z" opacity=".5"/><path d="m91.1104 284.748c8.0149-5.876 17.7396-9.338 28.2356-9.338h39.726v-22.24h-34.036c-17.979 0-32.6756 13.93-33.9256 31.578z"/></g><g opacity=".05"><path d="m159.063 185.268v-12.158c-27.667 2.709-52.079 17.786-68.0078 39.925v40.136c0-36.968 31.0948-67.398 68.0078-67.903z" opacity=".5"/><path d="m125.036 253.17c-17.491 0-31.8852 13.195-33.797 30.164 8.0058-6.244 17.896-9.935 28.622-9.935h39.202v-20.219h-34.036z"/></g><g opacity=".05"><path d="m159.063 185.268v-10.936c-27.915 2.525-52.483 17.969-68.0078 40.604v38.225c0-36.967 31.0948-67.398 68.0078-67.903z" opacity=".5"/><path d="m125.036 253.17c-17.004 0-31.0763 12.461-33.6131 28.741 7.9597-6.602 18.0151-10.541 28.9531-10.541h38.687v-18.2h-34.036z"/></g><g opacity=".05"><path d="m159.063 185.268v-9.706c-28.2 2.332-52.934 18.199-68.0078 41.385v36.224c0-36.968 31.0948-67.398 68.0078-67.903z" opacity=".5"/><path d="m125.036 253.171c-16.517 0-30.2767 11.762-33.365 27.354 7.8955-6.969 18.089-11.175 29.229-11.175h38.172v-16.179z"/></g><g opacity=".05"><path d="m159.063 185.267v-8.466c-28.531 2.112-53.458 18.475-68.0078 42.266v34.103c0-36.968 31.0948-67.398 68.0078-67.903z" opacity=".5"/><path d="m125.036 253.171c-16.021 0-29.4402 11.064-33.0525 25.949 7.7852-7.328 18.1075-11.799 29.4305-11.799h37.649v-14.159h-34.036z"/></g><g opacity=".05"><path d="m159.063 185.267v-7.226c-28.907 1.892-54.074 18.815-68.0078 43.304v31.825c0-36.967 31.0948-67.398 68.0078-67.903z" opacity=".5"/><path d="m125.036 253.17c-15.515 0-28.5853 10.376-32.6755 24.545 7.6475-7.686 18.0705-12.415 29.5785-12.415h37.133v-12.13z"/></g><g opacity=".05"><path d="m159.063 185.268v-5.978c-29.349 1.644-54.8 19.246-68.0078 44.525v29.356c0-36.968 31.0948-67.398 68.0078-67.903z" opacity=".5"/><path d="m125.036 253.17c-14.991 0-27.7123 9.697-32.2436 23.149 7.4726-8.035 17.9966-13.039 29.6516-13.039h36.619v-10.11h-34.036z"/></g><g opacity=".05"><path d="m159.063 185.268v-4.72c-29.891 1.377-55.682 19.806-68.0078 46.012v26.611c0-36.968 31.0948-67.398 68.0078-67.903z" opacity=".5"/><path d="m125.036 253.17c-14.476 0-26.8298 9.045-31.7472 21.781 7.2702-8.393 17.8592-13.691 29.6792-13.691h36.104v-8.09z"/></g><g opacity=".05"><path d="m159.063 185.267v-3.434c-30.58 1.093-56.813 20.559-68.0078 47.913v23.424c0-36.968 31.0948-67.398 68.0078-67.903z" opacity=".5"/><path d="m125.036 253.17c-13.953 0-25.9384 8.402-31.1775 20.413 7.0135-8.751 17.6755-14.343 29.6335-14.343h35.58v-6.07z"/></g></g></g></g></svg>